<svg xmlns="http://www.w3.org/2000/svg" width="60" height="60" viewBox="0 0 60 60"><g transform="translate(-1181 -2128)"><g transform="translate(1181 2128)" fill="#fff" stroke="#000" stroke-width="3"><circle cx="30" cy="30" r="30" stroke="none"/><circle cx="30" cy="30" r="28.5" fill="none"/></g><g transform="translate(1181 2128)"><path d="M4.919,4.919a1.428,1.428,0,0,1,2.022,0L14.5,12.48l7.558-7.561A1.43,1.43,0,0,1,24.08,6.941L16.519,14.5l7.561,7.558a1.43,1.43,0,0,1-2.022,2.022L14.5,16.519,6.941,24.08a1.43,1.43,0,1,1-2.022-2.022L12.48,14.5,4.919,6.941a1.428,1.428,0,0,1,0-2.022Z" transform="translate(15.501 15.501)"/></g></g></svg>