<svg xmlns="http://www.w3.org/2000/svg" width="60" height="60" viewBox="0 0 60 60"><g transform="translate(-1094 -2128)"><g transform="translate(1094 2128)" fill="#fff" stroke="#000" stroke-width="3"><circle cx="30" cy="30" r="30" stroke="none"/><circle cx="30" cy="30" r="28.5" fill="none"/></g><path d="M24.19.292a1,1,0,0,1,1.41,0l5.975,5.975a1,1,0,0,1,0,1.41L11.659,27.592a1,1,0,0,1-.335.219L1.366,31.795A1,1,0,0,1,.072,30.5l3.983-9.958a1,1,0,0,1,.219-.335L24.19.292ZM22.32,4.98l4.567,4.567,2.575-2.575L24.895,2.4Zm3.159,5.975L20.911,6.388,7.966,19.333v.584h1a1,1,0,0,1,1,1v1h1a1,1,0,0,1,1,1v1h.584ZM6.038,21.261l-.211.211-3.043,7.61,7.61-3.043.211-.211a1,1,0,0,1-.647-.932v-1h-1a1,1,0,0,1-1-1v-1h-1a1,1,0,0,1-.932-.647Z" transform="translate(1108.4 2141.734)"/></g></svg>